SplineFontDB: 3.0
FontName: Topmarks-Regular
FullName: Topmarks Regular
FamilyName: Topmarks
Weight: Medium
Copyright: 2013 (c) vernon adams
Version: x
ItalicAngle: 0
UnderlinePosition: 0
UnderlineWidth: 0
Ascent: 1638
Descent: 410
UFOAscent: 1638
UFODescent: -410
LayerCount: 2
Layer: 0 0 "Back"  1
Layer: 1 0 "Fore"  0
FSType: 0
OS2Version: 0
OS2_WeightWidthSlopeOnly: 0
OS2_UseTypoMetrics: 1
CreationTime: 1362591153
ModificationTime: 1362591275
PfmFamily: 33
TTFWeight: 400
TTFWidth: 5
LineGap: 0
VLineGap: 0
OS2TypoAscent: 1638
OS2TypoAOffset: 0
OS2TypoDescent: -410
OS2TypoDOffset: 0
OS2TypoLinegap: 0
OS2WinAscent: 1638
OS2WinAOffset: 0
OS2WinDescent: 410
OS2WinDOffset: 0
HheadAscent: 1638
HheadAOffset: 0
HheadDescent: -410
HheadDOffset: 0
OS2Vendor: 'newt'
Lookup: 258 0 0 "'kern' Horizontal Kerning in Latin lookup 0"  {"'kern' Horizontal Kerning in Latin lookup 0 subtable"  } ['kern' ('latn' <'dflt' > ) ]
MarkAttachClasses: 1
DEI: 91125
LangName: 1033 "" "" "" "" "" "" "" "" "" "" "" "" "" "Copyright (c) 2013, vernon adams (<URL|email>),+AAoA-with Reserved Font Name Topmarks.+AAoACgAA-This Font Software is licensed under the SIL Open Font License, Version 1.1.+AAoA-This license is copied below, and is also available with a FAQ at:+AAoA-http://scripts.sil.org/OFL+AAoA" "http://scripts.sil.org/OFL" 
Encoding: ISO8859-1
Compacted: 1
UnicodeInterp: none
NameList: AGL For New Fonts
DisplaySize: -48
AntiAlias: 1
FitToEm: 1
WinInfo: 0 18 11
BeginPrivate: 0
EndPrivate
BeginChars: 322 92

StartChar: A
Encoding: 65 65 0
Width: 1464
VWidth: 0
Flags: HW
LayerCount: 2
UndoRedoHistory
Layer: 1
Undoes
EndUndoes
Redoes
EndRedoes
EndUndoRedoHistory
Fore
SplineSet
38.2 0 m 1
 627.8 1452.8 l 1
 836 1452.8 l 1
 1423.8 0 l 1
 1195.2 0 l 1
 1052.6 371 l 1
 402.4 371 l 1
 259.4 0 l 1
 38.2 0 l 1
464.4 531.8 m 1
 991.4 531.8 l 1
 842 916.2 l 1
 727.2 1227.2 l 1
 613.2 915.6 l 1
 464.4 531.8 l 1
EndSplineSet
EndChar

StartChar: B
Encoding: 66 66 1
Width: 1374
VWidth: 0
Flags: HW
LayerCount: 2
UndoRedoHistory
Layer: 1
Undoes
EndUndoes
Redoes
EndRedoes
EndUndoRedoHistory
Fore
SplineSet
180.4 0 m 1
 180.4 1452.8 l 1
 623 1452.8 l 2
 1014.4 1452.8 1195.4 1352.2 1195.4 1103 c 0
 1195.4 918.8 1122 823 958.4 771.4 c 1
 1162 734 1262 628.2 1262 409.8 c 0
 1262 119.2 1062.8 0 689 0 c 2
 180.4 0 l 1
387.2 169.2 m 1
 682.6 169.2 l 2
 942.2 169.2 1054.4 239.8 1054.4 416.8 c 0
 1054.4 597.2 937.2 673.2 649 673.2 c 2
 387.2 673.2 l 1
 387.2 169.2 l 1
387.2 831.4 m 1
 619 831.4 l 2
 881.8 831.4 988.4 901.6 988.4 1071 c 0
 988.4 1223.8 884.4 1284 623 1284 c 2
 387.2 1284 l 1
 387.2 831.4 l 1
EndSplineSet
EndChar

StartChar: C
Encoding: 67 67 2
Width: 1427
VWidth: 0
Flags: HW
LayerCount: 2
UndoRedoHistory
Layer: 1
Undoes
EndUndoes
Redoes
EndRedoes
EndUndoRedoHistory
Fore
SplineSet
849.6 -22 m 0
 399.8 -22 124.8 281.8 124.8 723.6 c 0
 124.8 1169.6 416.8 1477.8 859.2 1477.8 c 0
 1057.2 1477.8 1208.2 1412.4 1319 1327.2 c 1
 1236.4 1170.8 l 1
 1138.6 1247 1004.4 1297.8 871.8 1297.8 c 0
 537.8 1297.8 343.4 1058.4 343.4 722.6 c 0
 343.4 394.8 526.6 158 861.8 158 c 0
 1024 158 1167.8 208.2 1268 292.6 c 1
 1333.4 121.4 l 1
 1218.4 28.2 1040.2 -22 849.6 -22 c 0
EndSplineSet
EndChar

StartChar: D
Encoding: 68 68 3
Width: 1567
VWidth: 0
Flags: HW
LayerCount: 2
UndoRedoHistory
Layer: 1
Undoes
EndUndoes
Redoes
EndRedoes
EndUndoRedoHistory
Fore
SplineSet
390 168.8 m 1
 627.4 168.8 l 2
 1016.8 168.8 1227 351.8 1227 726.6 c 0
 1227 1137.2 992.8 1284 552.8 1284 c 2
 390 1284 l 1
 390 168.8 l 1
180.4 0 m 1
 180.4 1452.8 l 1
 527 1452.8 l 2
 1110.2 1452.8 1443.4 1258.2 1443.4 729.6 c 0
 1443.4 233 1140.4 0 611.4 0 c 2
 180.4 0 l 1
EndSplineSet
EndChar

StartChar: E
Encoding: 69 69 4
Width: 1217
VWidth: 0
Flags: HW
LayerCount: 2
UndoRedoHistory
Layer: 1
Undoes
EndUndoes
Redoes
EndRedoes
EndUndoRedoHistory
Fore
SplineSet
180.4 0 m 1
 180.4 1452.8 l 1
 1063.4 1452.8 l 1
 1063.4 1284 l 1
 387.2 1284 l 1
 387.2 826 l 1
 1025.4 826 l 1
 1025.4 660 l 1
 387.2 660 l 1
 387.2 168.8 l 1
 1113.4 168.8 l 1
 1113.4 0 l 1
 180.4 0 l 1
EndSplineSet
EndChar

StartChar: F
Encoding: 70 70 5
Width: 1144
VWidth: 0
Flags: HW
LayerCount: 2
UndoRedoHistory
Layer: 1
Undoes
EndUndoes
Redoes
EndRedoes
EndUndoRedoHistory
Fore
SplineSet
180.4 0 m 1
 180.4 1452.8 l 1
 1041.4 1452.8 l 1
 1041.4 1284 l 1
 387.2 1284 l 1
 387.2 831.8 l 1
 1007.8 831.8 l 1
 1007.8 665.8 l 1
 387.2 665.8 l 1
 387.2 0 l 1
 180.4 0 l 1
EndSplineSet
EndChar

StartChar: G
Encoding: 71 71 6
Width: 1555
VWidth: 0
Flags: HW
LayerCount: 2
UndoRedoHistory
Layer: 1
Undoes
EndUndoes
Redoes
EndRedoes
EndUndoRedoHistory
Fore
SplineSet
876.6 -22 m 0
 408 -22 124.8 245.8 124.8 695.4 c 0
 124.8 1162.6 421.2 1477.8 892.8 1477.8 c 0
 1085.8 1477.8 1243.8 1425 1366.6 1322.6 c 1
 1290.6 1176.8 l 1
 1189 1254 1045.2 1297.8 894.4 1297.8 c 0
 545.8 1297.8 340.8 1054.6 340.8 708.8 c 0
 340.8 362.8 540.8 158 890.2 158 c 0
 1004.8 158 1108.4 172.4 1190.4 205.6 c 1
 1190.4 602.8 l 1
 846.2 602.8 l 1
 846.2 763.4 l 1
 1391.2 763.4 l 1
 1391.2 79.8 l 1
 1251.4 14.2 1070.8 -22 876.6 -22 c 0
EndSplineSet
EndChar

StartChar: H
Encoding: 72 72 7
Width: 1547
VWidth: 0
Flags: HW
LayerCount: 2
UndoRedoHistory
Layer: 1
Undoes
EndUndoes
Redoes
EndRedoes
EndUndoRedoHistory
Fore
SplineSet
180.4 0 m 1
 180.4 1452.8 l 1
 387.2 1452.8 l 1
 387.2 833.2 l 1
 1164.8 833.2 l 1
 1164.8 1452.8 l 1
 1367 1452.8 l 1
 1367 0 l 1
 1164.8 0 l 1
 1164.8 658.4 l 1
 387.2 658.4 l 1
 387.2 0 l 1
 180.4 0 l 1
EndSplineSet
EndChar

StartChar: I
Encoding: 73 73 8
Width: 582
VWidth: 0
Flags: HW
LayerCount: 2
UndoRedoHistory
Layer: 1
Undoes
EndUndoes
Redoes
EndRedoes
EndUndoRedoHistory
Fore
SplineSet
187.6 0 m 1
 187.6 1452.8 l 1
 394.4 1452.8 l 1
 394.4 0 l 1
 187.6 0 l 1
EndSplineSet
EndChar

StartChar: J
Encoding: 74 74 9
Width: 1097
VWidth: 0
Flags: HW
LayerCount: 2
UndoRedoHistory
Layer: 1
Undoes
EndUndoes
Redoes
EndRedoes
EndUndoRedoHistory
Fore
SplineSet
57.4 -114 m 1
 117.4 49.2 l 1
 206.8 7.2 286.8 -14.6 353.6 -14.6 c 0
 499.6 -14.6 587 89.2 587 317.2 c 2
 587 1287.6 l 1
 183.6 1287.6 l 1
 183.6 1452.8 l 1
 1065 1452.8 l 1
 1065 1287.6 l 1
 793.8 1287.6 l 1
 793.8 318.8 l 2
 793.8 -39.4 603 -198.2 368.2 -198.2 c 0
 268.2 -198.2 160.6 -169 57.4 -114 c 1
EndSplineSet
EndChar

StartChar: K
Encoding: 75 75 10
Width: 1287
VWidth: 0
Flags: HW
LayerCount: 2
UndoRedoHistory
Layer: 1
Undoes
EndUndoes
Redoes
EndRedoes
EndUndoRedoHistory
Fore
SplineSet
180.4 0 m 1
 180.4 1452.8 l 1
 387.2 1452.8 l 1
 387.2 806.4 l 1
 994 1452.8 l 1
 1245.6 1452.8 l 1
 599.4 767.6 l 1
 1283.2 0 l 1
 1020 0 l 1
 387.2 707.4 l 1
 387.2 0 l 1
 180.4 0 l 1
EndSplineSet
EndChar

StartChar: L
Encoding: 76 76 11
Width: 1093
VWidth: 0
Flags: HW
LayerCount: 2
UndoRedoHistory
Layer: 1
Undoes
EndUndoes
Redoes
EndRedoes
EndUndoRedoHistory
Fore
SplineSet
180.4 0 m 1
 180.4 1452.8 l 1
 387.2 1452.8 l 1
 387.2 168.8 l 1
 1064.6 168.8 l 1
 1064.6 0 l 1
 180.4 0 l 1
EndSplineSet
EndChar

StartChar: M
Encoding: 77 77 12
Width: 1967
VWidth: 0
Flags: HW
LayerCount: 2
UndoRedoHistory
Layer: 1
Undoes
EndUndoes
Redoes
EndRedoes
EndUndoRedoHistory
Fore
SplineSet
180.4 0 m 1
 180.4 1452.8 l 1
 440.4 1452.8 l 1
 900.6 640.6 l 1
 986.6 479.6 l 1
 1071.2 643.2 l 1
 1540.4 1452.8 l 1
 1787.2 1452.8 l 1
 1787.2 0 l 1
 1586.4 0 l 1
 1586.4 1181.4 l 1
 1496.8 1002.8 l 1
 1047.2 223.6 l 1
 921.6 223.6 l 1
 470.8 1014.8 l 1
 386.4 1198.4 l 1
 386.4 0 l 1
 180.4 0 l 1
EndSplineSet
EndChar

StartChar: N
Encoding: 78 78 13
Width: 1620
VWidth: 0
Flags: HW
LayerCount: 2
UndoRedoHistory
Layer: 1
Undoes
EndUndoes
Redoes
EndRedoes
EndUndoRedoHistory
Fore
SplineSet
180.4 0 m 1
 180.4 1452.8 l 1
 410 1452.8 l 1
 1147.4 405.2 l 1
 1245 254.2 l 1
 1245 1452.8 l 1
 1440 1452.8 l 1
 1440 0 l 1
 1208 0 l 1
 467.6 1047.4 l 1
 376 1186.6 l 1
 376 0 l 1
 180.4 0 l 1
EndSplineSet
EndChar

StartChar: O
Encoding: 79 79 14
Width: 1696
VWidth: 0
Flags: HW
LayerCount: 2
UndoRedoHistory
Layer: 1
Undoes
EndUndoes
Redoes
EndRedoes
EndUndoRedoHistory
Fore
SplineSet
848 156.2 m 0
 1124.8 156.2 1352 361.2 1352 727 c 0
 1352 1095.2 1124.8 1297.8 848 1297.8 c 0
 571.2 1297.8 344.4 1095.2 344.4 727 c 0
 344.4 361.2 571.2 156.2 848 156.2 c 0
848 -23.8 m 0
 388 -23.8 124.8 312 124.8 727.2 c 0
 124.8 1144.4 388 1477.8 848 1477.8 c 0
 1308 1477.8 1571.6 1144.4 1571.6 727.2 c 0
 1571.6 312 1308 -23.8 848 -23.8 c 0
EndSplineSet
EndChar

StartChar: P
Encoding: 80 80 15
Width: 1282
VWidth: 0
Flags: HW
LayerCount: 2
UndoRedoHistory
Layer: 1
Undoes
EndUndoes
Redoes
EndRedoes
EndUndoRedoHistory
Fore
SplineSet
180.4 0 m 1
 180.4 1452.8 l 1
 595.8 1452.8 l 2
 1034.6 1452.8 1216.6 1316 1216.6 1013.2 c 0
 1216.6 710.4 1023.8 565.8 620.8 565.8 c 2
 390 565.8 l 1
 390 0 l 1
 180.4 0 l 1
390 736.4 m 1
 639.8 736.4 l 2
 882.4 736.4 999 825.2 999 1011.2 c 0
 999 1200.2 891.6 1284 619.8 1284 c 2
 390 1284 l 1
 390 736.4 l 1
EndSplineSet
EndChar

StartChar: Q
Encoding: 81 81 16
Width: 1696
VWidth: 0
Flags: HW
LayerCount: 2
UndoRedoHistory
Layer: 1
Undoes
EndUndoes
Redoes
EndRedoes
EndUndoRedoHistory
Fore
SplineSet
1242.2 -423.2 m 1
 1126 -306.6 1017 -177.6 941 -15 c 1
 1133.6 34 l 1
 1196.6 -95.6 1284.6 -198.6 1382.2 -289.6 c 1
 1242.2 -423.2 l 1
EndSplineSet
Refer: 14 79 N 1 0 0 1 0 0 2
EndChar

StartChar: R
Encoding: 82 82 17
Width: 1350
VWidth: 0
Flags: HW
LayerCount: 2
UndoRedoHistory
Layer: 1
Undoes
EndUndoes
Redoes
EndRedoes
EndUndoRedoHistory
Fore
SplineSet
180.4 0 m 1
 180.4 1452.8 l 1
 582.4 1452.8 l 2
 947.4 1452.8 1199.6 1380 1199.6 1072 c 0
 1199.6 871.4 1084.4 758.4 892.8 708.6 c 1
 1021.6 666 1068.2 560.4 1124.6 409.2 c 2
 1279.6 0 l 1
 1056 0 l 1
 907.4 418.2 l 2
 855.2 566.8 795.2 646.4 628.4 646.4 c 2
 387.2 646.4 l 1
 387.2 0 l 1
 180.4 0 l 1
387.2 807.8 m 1
 636.8 807.8 l 2
 845 807.8 990 870.2 990 1056.4 c 0
 990 1242.2 856.4 1284 647.4 1284 c 2
 387.2 1284 l 1
 387.2 807.8 l 1
EndSplineSet
EndChar

StartChar: S
Encoding: 83 83 18
Width: 1263
VWidth: 0
Flags: HW
LayerCount: 2
UndoRedoHistory
Layer: 1
Undoes
EndUndoes
Redoes
EndRedoes
EndUndoRedoHistory
Fore
SplineSet
679.07810611 -22 m 0
 498.27810611 -22 289.47810611 34.2 153.47810611 122.2 c 1
 193.87810611 305.8 l 1
 342.87810611 205.4 525.67810611 153.8 666.07810611 153.8 c 0
 861.27810611 153.8 951.27810611 249.6 951.27810611 394.6 c 0
 951.27810611 494.4 916.87810611 562.4 566.67810611 663.8 c 0
 227.47810611 761 144.87810611 895.6 147.27810611 1089 c 0
 149.67810611 1313.8 323.87810611 1477.8 650.27810611 1477.8 c 0
 797.27810611 1477.8 960.27810611 1444 1106.07810611 1353.4 c 1
 1046.87810611 1191.2 l 1
 929.27810611 1260 791.87810611 1299.6 669.47810611 1299.6 c 0
 455.67810611 1299.6 365.87810611 1229.6 362.27810611 1105.6 c 0
 358.67810611 983.4 399.07810611 922.2 692.27810611 833.8 c 0
 1065.07810611 721.4 1158.47810611 603.6 1156.07810611 393.4 c 0
 1154.07810611 165.2 1009.07810611 -22 679.07810611 -22 c 0
EndSplineSet
EndChar

StartChar: T
Encoding: 84 84 19
Width: 1186
VWidth: 0
Flags: HW
LayerCount: 2
UndoRedoHistory
Layer: 1
Undoes
EndUndoes
Redoes
EndRedoes
EndUndoRedoHistory
Fore
SplineSet
489 0 m 1
 489 1284 l 1
 37.2 1284 l 1
 37.2 1452.8 l 1
 1149.4 1452.8 l 1
 1149.4 1284 l 1
 695.4 1284 l 1
 695.4 0 l 1
 489 0 l 1
EndSplineSet
EndChar

StartChar: U
Encoding: 85 85 20
Width: 1520
VWidth: 0
Flags: HW
LayerCount: 2
UndoRedoHistory
Layer: 1
Undoes
EndUndoes
Redoes
EndRedoes
EndUndoRedoHistory
Fore
SplineSet
772.6 -22 m 0
 388.6 -22 166 177.4 166 543.4 c 2
 166 1452.8 l 1
 372.4 1452.8 l 1
 372.4 548.4 l 2
 372.4 291.2 516.6 153.8 771 153.8 c 0
 1008.6 153.8 1148.8 301.4 1148.8 541.4 c 2
 1148.8 1452.8 l 1
 1354.6 1452.8 l 1
 1354.6 553.8 l 1
 1353.4 199.8 1137.8 -22 772.6 -22 c 0
EndSplineSet
EndChar

StartChar: V
Encoding: 86 86 21
Width: 1359
VWidth: 0
Flags: HW
LayerCount: 2
UndoRedoHistory
Layer: 1
Undoes
EndUndoes
Redoes
EndRedoes
EndUndoRedoHistory
Fore
SplineSet
573 0.6 m 1
 9 1452.8 l 1
 231.8 1452.8 l 1
 610 447 l 1
 683.6 239.6 l 1
 755.2 446 l 1
 1127.4 1452.8 l 1
 1350.8 1452.8 l 1
 795.8 0.6 l 1
 573 0.6 l 1
EndSplineSet
EndChar

StartChar: W
Encoding: 87 87 22
Width: 2145
VWidth: 0
Flags: HW
LayerCount: 2
UndoRedoHistory
Layer: 1
Undoes
EndUndoes
Redoes
EndRedoes
EndUndoRedoHistory
Fore
SplineSet
1466.4 0 m 1
 1074.2 1168.6 l 1
 680 0.6 l 1
 463.8 0.6 l 1
 29.2 1452.8 l 1
 242.8 1452.8 l 1
 528.4 455 l 1
 578 267.4 l 1
 642.4 455 l 1
 989.6 1452.8 l 1
 1169.8 1452.8 l 1
 1514.4 451 l 1
 1574.4 268.4 l 1
 1628.4 455 l 1
 1908.6 1452.8 l 1
 2116.2 1452.8 l 1
 1682 0 l 1
 1466.4 0 l 1
EndSplineSet
EndChar

StartChar: X
Encoding: 88 88 23
Width: 1339
VWidth: 0
Flags: HW
LayerCount: 2
UndoRedoHistory
Layer: 1
Undoes
EndUndoes
Redoes
EndRedoes
EndUndoRedoHistory
Fore
SplineSet
3.8 0 m 1
 552.8 743.8 l 1
 46.8 1452.8 l 1
 285.2 1452.8 l 1
 686.4 874.4 l 1
 1098.2 1452.8 l 1
 1325 1452.8 l 1
 802.4 732 l 1
 1324.2 0 l 1
 1095.2 0 l 1
 667.6 598.2 l 1
 235.8 0 l 1
 3.8 0 l 1
EndSplineSet
EndChar

StartChar: Y
Encoding: 89 89 24
Width: 1270
VWidth: 0
Flags: HW
LayerCount: 2
UndoRedoHistory
Layer: 1
Undoes
EndUndoes
Redoes
EndRedoes
EndUndoRedoHistory
Fore
SplineSet
523 0 m 1
 523 581.2 l 1
 6.4 1452.8 l 1
 229 1452.8 l 1
 631.2 751.4 l 1
 1045.8 1452.8 l 1
 1264 1452.8 l 1
 733.8 583.8 l 1
 733.8 0 l 1
 523 0 l 1
EndSplineSet
EndChar

StartChar: Z
Encoding: 90 90 25
Width: 1249
VWidth: 0
Flags: HW
LayerCount: 2
UndoRedoHistory
Layer: 1
Undoes
EndUndoes
Redoes
EndRedoes
EndUndoRedoHistory
Fore
SplineSet
95.2 0 m 1
 95.2 134.4 l 1
 910.4 1284 l 1
 126.8 1284 l 1
 126.8 1452.8 l 1
 1168.4 1452.8 l 1
 1168.4 1328 l 1
 352 168.8 l 1
 1160.4 168.8 l 1
 1160.4 0 l 1
 95.2 0 l 1
EndSplineSet
EndChar

StartChar: a
Encoding: 97 97 26
Width: 1237
VWidth: 0
Flags: HW
LayerCount: 2
UndoRedoHistory
Layer: 1
Undoes
EndUndoes
Redoes
EndRedoes
EndUndoRedoHistory
Fore
SplineSet
517.2 -22 m 0
 262 -22 91.6 162.8 91.6 432.8 c 0
 91.6 790.8 325.6 1035.2 669.6 1035.2 c 0
 805.2 1035.2 957 993.6 1043.4 939.6 c 1
 1043.4 304.8 l 2
 1043.4 220.8 1103 162.6 1185.6 162.6 c 1
 1133.6 -5.6 l 1
 1005.2 -5.6 901.8 64 877.2 163.6 c 1
 814.8 53.8 668 -22 517.2 -22 c 0
539.8 139.2 m 0
 723.6 139.2 848.2 267 848.2 439.4 c 2
 848.2 836.8 l 1
 806.6 858.2 731.4 872.2 662.6 872.2 c 0
 442.6 872.2 292.8 697.4 292.8 442.4 c 0
 292.8 262.2 392.8 139.2 539.8 139.2 c 0
EndSplineSet
EndChar

StartChar: ampersand
Encoding: 38 38 27
Width: 2148
VWidth: 0
Flags: HW
LayerCount: 2
UndoRedoHistory
Layer: 1
Undoes
EndUndoes
Redoes
EndRedoes
EndUndoRedoHistory
Fore
SplineSet
734.2 -35 m 0
 477.4 -35 282.6 60 193.6 229.2 c 0
 163.6 285.8 150.2 351.2 150.2 423.6 c 0
 150.2 553.4 207.4 642.6 276.2 712.4 c 0
 352 789.6 455.2 851.6 555.6 905.2 c 1
 481.8 979 402.6 1050.4 364.2 1155.2 c 0
 352.4 1186.2 347 1221 347 1258.4 c 0
 347 1471 521.2 1569.4 734.2 1569.4 c 0
 904.4 1569.4 1035.8 1506 1100.8 1399.2 c 0
 1124.4 1360.4 1135.2 1316.6 1135.2 1264.4 c 0
 1135.2 1166 1086.4 1094.2 1034.8 1039 c 0
 973.8 972.6 890.6 917.6 807 872.8 c 1
 1250.8 419.6 l 1
 1322.2 521.4 1376.8 654.8 1401.4 802.4 c 0
 1409.2 849.6 1413.2 894.4 1413.2 939.2 c 1
 1591.8 917 l 1
 1582.4 662.2 1493.8 450.2 1374.8 297.6 c 1
 1454 216.4 1523.8 154 1640 115.6 c 0
 1673.4 105.2 1713.2 95.4 1758 85.6 c 1
 1616.4 -19.2 l 1
 1458 4.4 1370.4 100.8 1274.4 192.8 c 1
 1147 68.4 983.2 -35 734.2 -35 c 0
730.8 117.6 m 0
 934.4 117.6 1055 204.2 1158.8 305 c 1
 1156.8 305 1147.6 312.4 1133.2 326.2 c 0
 1061.4 395 981.6 479.6 907.8 553.4 c 2
 662.4 796 l 1
 545.8 736 427.2 669.6 369.2 552 c 0
 351.4 515.6 342.6 474.2 342.6 428 c 0
 342.6 270.6 452.8 182 574.8 141.2 c 0
 622 125.4 674.2 117.6 730.8 117.6 c 0
695.8 975.6 m 1
 786.8 1023.4 881.8 1081.8 930 1169.4 c 0
 944.8 1196 952.6 1223.6 952.6 1253.6 c 0
 952.6 1370.2 857.8 1426.8 742.6 1426.8 c 0
 625 1426.8 532 1371.2 532 1253.6 c 0
 532 1156.2 580.2 1093.2 629 1040.6 c 0
 649.2 1019.4 671.2 998.2 695.8 975.6 c 1
EndSplineSet
EndChar

StartChar: asciicircum
Encoding: 94 94 28
Width: 1376
VWidth: 0
Flags: HW
LayerCount: 2
UndoRedoHistory
Layer: 1
Undoes
EndUndoes
Redoes
EndRedoes
EndUndoRedoHistory
Fore
SplineSet
148.4 558 m 1
 628.6 1438.4 l 1
 729.6 1438.4 l 1
 1217.4 558 l 1
 1042.8 558 l 1
 677.2 1226.4 l 1
 324.4 558 l 1
 148.4 558 l 1
EndSplineSet
EndChar

StartChar: asciitilde
Encoding: 126 126 29
Width: 1567
VWidth: 0
Flags: HW
LayerCount: 2
UndoRedoHistory
Layer: 1
Undoes
EndUndoes
Redoes
EndRedoes
EndUndoRedoHistory
Fore
SplineSet
332 502.2 m 1
 209 560.8 l 1
 234.6 681.8 306.4 776.2 410.2 821 c 0
 446.6 837.2 487 844.6 532.2 844.6 c 0
 597.2 844.6 658.2 820.6 710.8 800.4 c 0
 797.4 766 883 718.2 969.6 686.2 c 0
 993.2 677.8 1013.4 673.4 1030.6 673.4 c 0
 1137.4 673.4 1196.4 776.2 1216.6 863.8 c 1
 1350.4 822 l 1
 1320.4 695.6 1255 596.6 1145.8 550.4 c 0
 1110.4 535.6 1072 529.2 1029.2 529.2 c 0
 973.6 529.2 918 553.8 873.2 574 c 0
 788.6 611 702 659.2 610 688.2 c 0
 582.4 696.6 557.4 701 535.2 701 c 0
 417.2 701 354.6 598.6 332 502.2 c 1
EndSplineSet
EndChar

StartChar: asterisk
Encoding: 42 42 30
Width: 1499
VWidth: 0
Flags: HW
LayerCount: 2
UndoRedoHistory
Layer: 1
Undoes
EndUndoes
Redoes
EndRedoes
EndUndoRedoHistory
Fore
SplineSet
839.4 964.4 m 1
 670.6 1248.8 l 1
 506.8 972.8 l 1
 374 1053 l 1
 578.6 1307.8 l 1
 286.4 1391 l 1
 309 1535.6 l 1
 612.6 1403.8 l 1
 598.8 1511 582.6 1621.2 568.8 1728 c 1
 720.8 1728 l 1
 720.8 1409.2 l 1
 971.8 1538.6 l 1
 1040.6 1405.2 l 1
 759.2 1311.2 l 1
 974.2 1042.6 l 1
 839.4 964.4 l 1
EndSplineSet
EndChar

StartChar: at
Encoding: 64 64 31
Width: 1921
VWidth: 0
Flags: HW
LayerCount: 2
UndoRedoHistory
Layer: 1
Undoes
EndUndoes
Redoes
EndRedoes
EndUndoRedoHistory
Fore
SplineSet
992.4 -109.8 m 0
 525 -109.8 137.4 196.4 137.4 677 c 0
 137.4 1180.6 547.4 1472.4 1000.4 1472.4 c 0
 1417.4 1472.4 1783.8 1220.2 1783.8 788.6 c 0
 1783.8 489.8 1585.6 235.4 1321 235.4 c 0
 1202 235.4 1112.2 287.6 1100.4 402 c 1
 1034.4 311 941 255 829.4 255 c 0
 628.8 255 513.8 424.4 513.8 616 c 0
 513.8 886.8 744.6 1134.8 983.8 1134.8 c 0
 1082.2 1134.8 1165.8 1093 1216.4 1018.8 c 1
 1242.8 1103.8 l 1
 1404 1103.8 l 1
 1317.6 724.6 1263 502.8 1263 454 c 0
 1263 396.4 1292.8 363.6 1349.2 363.6 c 0
 1491.6 363.6 1611.6 557 1611.6 793.6 c 0
 1611.6 1134.6 1328.4 1332.2 996.6 1332.2 c 0
 635.6 1332.2 322.4 1073.2 322.4 677.8 c 0
 322.4 274.2 628 32 1007.8 32 c 0
 1197.8 32 1361.8 90.8 1490.6 182.8 c 1
 1574.6 85.2 l 1
 1427.8 -36.2 1225 -109.8 992.4 -109.8 c 0
864 398.2 m 0
 1020.6 398.2 1150.4 594.8 1150.4 821 c 0
 1150.4 932.8 1101.8 994.6 1005.8 994.6 c 0
 845.2 994.6 703.2 799.4 703.2 590.8 c 0
 703.2 470.6 764.4 398.2 864 398.2 c 0
EndSplineSet
EndChar

StartChar: b
Encoding: 98 98 32
Width: 1254
VWidth: 0
Flags: HW
LayerCount: 2
UndoRedoHistory
Layer: 1
Undoes
EndUndoes
Redoes
EndRedoes
EndUndoRedoHistory
Fore
SplineSet
646.4 -22 m 0
 373.8 -22 158 70.2 157.6 70.2 c 2
 157.6 1505.4 l 1
 354.2 1535 l 1
 354.2 848.2 l 1
 451.2 969.2 594.8 1033.4 732.8 1033.4 c 0
 974 1033.4 1162.4 846.2 1162.4 538.2 c 0
 1162.4 208.2 963 -22 646.4 -22 c 0
641.4 139.2 m 0
 852.4 139.2 960.8 317 960.8 539.6 c 0
 960.8 752.4 851.2 870.4 702.4 870.4 c 0
 586 870.4 452.2 791.6 354.2 654.4 c 1
 354.2 176 l 1
 354.2 176 485.4 139.2 641.4 139.2 c 0
EndSplineSet
EndChar

StartChar: backslash
Encoding: 92 92 33
Width: 925
VWidth: 0
Flags: HW
LayerCount: 2
UndoRedoHistory
Layer: 1
Undoes
EndUndoes
Redoes
EndRedoes
EndUndoRedoHistory
Fore
SplineSet
683.2 -129 m 1
 53 1449.8 l 1
 248 1449.8 l 1
 875 -129 l 1
 683.2 -129 l 1
EndSplineSet
EndChar

StartChar: bar
Encoding: 124 124 34
Width: 652
VWidth: 0
Flags: HW
LayerCount: 2
UndoRedoHistory
Layer: 1
Undoes
EndUndoes
Redoes
EndRedoes
EndUndoRedoHistory
Fore
SplineSet
240 -458.2 m 1
 240 1537.4 l 1
 408.2 1537.4 l 1
 408.2 -458.2 l 1
 240 -458.2 l 1
EndSplineSet
EndChar

StartChar: bracketleft
Encoding: 91 91 35
Width: 740
VWidth: 0
Flags: HW
LayerCount: 2
UndoRedoHistory
Layer: 1
Undoes
EndUndoes
Redoes
EndRedoes
EndUndoRedoHistory
Fore
SplineSet
213.4 -241 m 1
 213.4 1465.8 l 1
 607.4 1465.8 l 1
 607.4 1340.6 l 1
 414.8 1340.6 l 1
 414.8 -116.2 l 1
 608 -116.2 l 1
 608 -241 l 1
 213.4 -241 l 1
EndSplineSet
EndChar

StartChar: bracketright
Encoding: 93 93 36
Width: 818
VWidth: 0
Flags: HW
LayerCount: 2
UndoRedoHistory
Layer: 1
Undoes
EndUndoes
Redoes
EndRedoes
EndUndoRedoHistory
Fore
SplineSet
118.6 -248.2 m 1
 118.6 -123.4 l 1
 310.4 -123.4 l 1
 310.4 1333.4 l 1
 119.6 1333.4 l 1
 113.6 1458.6 l 1
 512 1458.6 l 1
 512 -248.2 l 1
 118.6 -248.2 l 1
EndSplineSet
EndChar

StartChar: c
Encoding: 99 99 37
Width: 1084
VWidth: 0
Flags: HW
LayerCount: 2
UndoRedoHistory
Layer: 1
Undoes
EndUndoes
Redoes
EndRedoes
EndUndoRedoHistory
Fore
SplineSet
639.6 -22.6 m 0
 327.4 -22.6 96 189.8 96 501.4 c 0
 96 829.6 356.8 1036.4 643.6 1036.4 c 0
 762.6 1036.4 893.6 1001.8 994.2 914.4 c 1
 929.8 769.8 l 1
 845.2 837.8 749.8 869.6 660.4 869.6 c 0
 462.2 869.6 297.6 728.4 297.6 504.8 c 0
 297.6 276.2 454.8 141 657 141 c 0
 771 141 881 187.6 958.8 258.8 c 1
 1024.2 108.8 l 1
 912.8 20 771.4 -22.6 639.6 -22.6 c 0
EndSplineSet
EndChar

StartChar: colon
Encoding: 58 58 38
Width: 704
VWidth: 0
Flags: HW
LayerCount: 2
UndoRedoHistory
Layer: 1
Undoes
EndUndoes
Redoes
EndRedoes
EndUndoRedoHistory
Fore
SplineSet
207.4 -14.6 m 1
 207.4 210.2 l 1
 439.6 210.2 l 1
 439.6 -14.6 l 1
 207.4 -14.6 l 1
207.4 896.6 m 1
 207.4 1121.4 l 1
 439.6 1121.4 l 1
 439.6 896.6 l 1
 207.4 896.6 l 1
EndSplineSet
EndChar

StartChar: comma
Encoding: 44 44 39
Width: 532
VWidth: 0
Flags: HW
LayerCount: 2
UndoRedoHistory
Layer: 1
Undoes
EndUndoes
Redoes
EndRedoes
EndUndoRedoHistory
Fore
SplineSet
70 -286 m 1
 184.2 209.4 l 1
 396 209.4 l 1
 222.2 -286 l 1
 70 -286 l 1
EndSplineSet
EndChar

StartChar: d
Encoding: 100 100 40
Width: 1262
VWidth: 0
Flags: HW
LayerCount: 2
UndoRedoHistory
Layer: 1
Undoes
EndUndoes
Redoes
EndRedoes
EndUndoRedoHistory
Fore
SplineSet
570.2 -22 m 0
 283.6 -22 92.4 184.4 92.4 495 c 0
 92.4 808 274 1035.2 585.8 1035.2 c 0
 705.8 1035.2 809.2 999.4 903.6 921.8 c 1
 903.6 1516 l 1
 1100.2 1533.2 l 1
 1100.2 389.6 l 2
 1100.2 193.6 1137.6 84 1183.4 17.6 c 1
 993.4 -13.4 l 1
 957 34.8 924.2 107 917.8 164.2 c 1
 860.6 49.2 727.6 -22 570.2 -22 c 0
589.4 139.2 m 0
 802 139.2 904.2 302.8 904.2 527.6 c 2
 904.2 732 l 1
 840 817.6 720.4 872.2 607.4 872.2 c 0
 401 872.2 294 714.8 294 501 c 0
 294 284.8 414.2 139.2 589.4 139.2 c 0
EndSplineSet
EndChar

StartChar: dollar
Encoding: 36 36 41
Width: 1587
VWidth: 0
Flags: HW
LayerCount: 2
UndoRedoHistory
Layer: 1
Undoes
EndUndoes
Redoes
EndRedoes
EndUndoRedoHistory
Fore
SplineSet
615.2 -224.4 m 1
 610.8 -57.6 l 1
 462.2 -54.6 353 -13.8 258 54.6 c 1
 310.2 198.2 l 1
 389.8 145 491.8 100.8 609.4 95.4 c 1
 613.2 652.8 l 1
 459.2 721.6 298.8 785.6 222.6 926.8 c 0
 200.4 969.2 188.6 1019.8 188.6 1079.4 c 0
 188.6 1204.8 250.2 1301.2 318.6 1366.2 c 0
 389.4 1432.6 492.2 1487.6 613.2 1497 c 1
 608.8 1644.2 l 1
 741.2 1644.2 l 1
 744.6 1498.6 l 1
 895.2 1495.6 1022.6 1450.8 1108.2 1378 c 1
 1056 1241.2 l 1
 980.8 1308.6 877 1345 745.6 1349 c 1
 743.6 783.2 l 1
 875 732 991.6 683.8 1081.6 605.6 c 0
 1152 544.6 1196.8 469.8 1196.8 345.4 c 0
 1196.8 148.6 1065.4 38.8 917.8 -14.8 c 0
 863.2 -35 804.6 -46.4 743.6 -52.2 c 1
 747 -224.4 l 1
 615.2 -224.4 l 1
741.2 99.4 m 1
 852.4 114.6 941.8 165.2 984.2 248.4 c 0
 998 276.4 1005.8 307.4 1005.8 342.4 c 0
 1005.8 501.8 860.2 557.8 745.6 607 c 1
 741.2 99.4 l 1
610.8 834.4 m 1
 613.2 1342.6 l 1
 484.8 1326.4 390.8 1235.8 390.8 1092.6 c 0
 390.8 936.2 496.2 877.2 610.8 834.4 c 1
EndSplineSet
EndChar

StartChar: e
Encoding: 101 101 42
Width: 1104
VWidth: 0
Flags: HW
LayerCount: 2
UndoRedoHistory
Layer: 1
Undoes
EndUndoes
Redoes
EndRedoes
EndUndoRedoHistory
Fore
SplineSet
632.2 -22 m 0
 316.2 -22 92.4 186.2 92.4 509.2 c 0
 92.4 794.6 303 1035.2 626.8 1035.2 c 0
 848.4 1035.2 987.2 911.2 987.2 742.2 c 0
 987.2 504.4 716.6 393.8 316.6 361.4 c 1
 356.6 227.8 491.4 139.2 633.8 139.2 c 0
 765.6 139.2 895.4 196.4 970.8 276 c 1
 1055.8 144.4 l 1
 950.6 43 789 -22 632.2 -22 c 0
299.8 501.2 m 1
 599 527.6 794.6 599.6 794.6 741.8 c 0
 794.6 822.4 730.4 876.6 623.4 876.6 c 0
 460.2 876.6 300 755.2 298 534.2 c 0
 298 525.8 298.6 510.8 299.8 501.2 c 1
EndSplineSet
EndChar

StartChar: eight
Encoding: 56 56 43
Width: 1250
VWidth: 0
Flags: HW
LayerCount: 2
UndoRedoHistory
Layer: 1
Undoes
EndUndoes
Redoes
EndRedoes
EndUndoRedoHistory
Fore
SplineSet
635.6 -22.6 m 0
 342.061898529 -22.6 131.2 129.8 131.2 375.8 c 0
 131.2 589.6 267 710.8 429.6 763.8 c 1
 284.4 812.8 167 921.6 167 1111.8 c 0
 167 1365.8 384.6 1477.8 635.6 1477.8 c 0
 923.2 1477.8 1104.6 1325.4 1104.6 1111.8 c 0
 1104.6 925.6 986 812.8 840.8 763.8 c 1
 1004.2 710.8 1139.6 589.6 1139.6 375.8 c 0
 1139.6 97.4 917.678080616 -22.6 635.6 -22.6 c 0
637.6 145.8 m 0
 812.117829964 145.8 929 233.4 929 386.4 c 0
 929 554.6 781.8 641 637.6 669.8 c 1
 480.4 639 345.4 541.8 345.4 386.4 c 0
 345.4 225.4 472 145.8 637.6 145.8 c 0
637.6 849.2 m 1
 781.8 875.4 901 955.8 901 1107.2 c 0
 901 1247.6 781.2 1313 637.6 1313 c 0
 482.8 1313 373 1236.6 373 1107.2 c 0
 373 955.8 492.6 875.4 637.6 849.2 c 1
EndSplineSet
EndChar

StartChar: equal
Encoding: 61 61 44
Width: 1569
VWidth: 0
Flags: HW
LayerCount: 2
UndoRedoHistory
Layer: 1
Undoes
EndUndoes
Redoes
EndRedoes
EndUndoRedoHistory
Fore
SplineSet
257.6 369.4 m 1
 257.6 506 l 1
 1304.2 506 l 1
 1304.2 369.4 l 1
 257.6 369.4 l 1
256.6 774.2 m 1
 256.6 912.6 l 1
 1303.6 912.6 l 1
 1303.6 774.2 l 1
 256.6 774.2 l 1
EndSplineSet
EndChar

StartChar: exclam
Encoding: 33 33 45
Width: 746
VWidth: 0
Flags: HW
LayerCount: 2
UndoRedoHistory
Layer: 1
Undoes
EndUndoes
Redoes
EndRedoes
EndUndoRedoHistory
Fore
SplineSet
372.8 -3.6 m 0
 287 -3.6 233 57.6 233 134.8 c 0
 233 216.8 298 270.6 373.8 270.6 c 0
 459.2 270.6 513.6 209.8 513.6 133 c 0
 513.6 50.6 448.6 -3.6 372.8 -3.6 c 0
316.2 431 m 1
 249.2 1555.2 l 1
 487 1555.2 l 1
 419.4 431 l 1
 316.2 431 l 1
EndSplineSet
EndChar

StartChar: f
Encoding: 102 102 46
Width: 741
VWidth: 0
Flags: HW
LayerCount: 2
UndoRedoHistory
Layer: 1
Undoes
EndUndoes
Redoes
EndRedoes
EndUndoRedoHistory
Fore
SplineSet
108.2 -398 m 1
 87.2 -246.6 l 1
 228 -246.6 268.6 -178.4 268.6 -28 c 2
 268.6 889 l 1
 69 889 l 1
 69 1014 l 1
 268.6 1014 l 1
 268.6 1148.8 l 2
 268.6 1396.2 382.6 1507.2 577.4 1507.2 c 0
 633 1507.2 700.2 1495.8 759.8 1474.2 c 1
 735.8 1344.4 l 1
 700.8 1353.4 666.4 1359 634 1359 c 0
 522.2 1359 464.2 1299.2 464.2 1148.6 c 2
 464.2 1014 l 1
 697.8 1014 l 1
 697.8 889 l 1
 464.2 889 l 1
 464.2 -11 l 2
 464.2 -277.8 365.6 -398 108.2 -398 c 1
EndSplineSet
EndChar

StartChar: five
Encoding: 53 53 47
Width: 1250
VWidth: 0
Flags: HW
LayerCount: 2
UndoRedoHistory
Layer: 1
Undoes
EndUndoes
Redoes
EndRedoes
EndUndoRedoHistory
Fore
SplineSet
186.2 167 m 1
 270.8 314.6 l 1
 357.8 208 466 146.6 596.4 146.2 c 0
 795.2 145.8 916.6 284 916.6 445.6 c 0
 916.6 640.6 802.2 747.2 642.2 748 c 0
 551.8 748.4 471.4 710 417.8 644.4 c 1
 242.2 640.8 l 1
 242.2 1435.2 l 1
 1032 1435.2 l 1
 1032 1268.6 l 1
 432.8 1268.6 l 1
 418.4 835.8 l 1
 486.6 885.8 569.6 915 670.2 914.6 c 0
 933 914.2 1120 731 1120 442.6 c 0
 1120 138 883.6 -25.4 600 -26.6 c 0
 422.2 -27 277 43.4 186.2 167 c 1
EndSplineSet
EndChar

StartChar: four
Encoding: 52 52 48
Width: 1250
VWidth: 0
Flags: HW
LayerCount: 2
UndoRedoHistory
Layer: 1
Undoes
EndUndoes
Redoes
EndRedoes
EndUndoRedoHistory
Fore
SplineSet
759.6 0 m 1
 759.6 339.4 l 1
 81.4 339.4 l 1
 81.4 490.2 l 1
 728 1452.8 l 1
 966.4 1452.8 l 1
 966.4 497.8 l 1
 1168.8 497.8 l 1
 1168.8 339.4 l 1
 966.4 339.4 l 1
 966.4 0 l 1
 759.6 0 l 1
288 497.8 m 1
 759.6 497.8 l 1
 759.6 1236 l 1
 664.4 1078.4 l 1
 288 497.8 l 1
EndSplineSet
EndChar

StartChar: g
Encoding: 103 103 49
Width: 1175
VWidth: 0
Flags: HW
LayerCount: 2
UndoRedoHistory
Layer: 1
Undoes
EndUndoes
Redoes
EndRedoes
EndUndoRedoHistory
Fore
SplineSet
520.6 -513.6 m 0
 411.6 -513.6 271.2 -486.4 169.8 -443.8 c 1
 200 -272 l 1
 287.6 -315.6 405.6 -345.4 494.6 -345.4 c 0
 704 -345.4 843.4 -220 843.4 -32.4 c 2
 843.4 115.8 l 1
 770.8 32.6 646 -22 518.4 -22 c 0
 263.2 -22 92.4 162.4 92.4 432.4 c 0
 92.4 790.4 326.8 1035.2 670.8 1035.2 c 0
 806.4 1035.2 958.2 993.6 1044.6 939.6 c 1
 1044.6 -16.6 l 2
 1044.6 -315.2 834.8 -513.6 520.6 -513.6 c 0
541 139.2 m 0
 724.8 139.2 849.4 267 849.4 439.4 c 2
 849.4 838 l 1
 807.8 859.4 732.6 872.2 663.8 872.2 c 0
 443.8 872.2 294 697.4 294 442.4 c 0
 294 262.2 394 139.2 541 139.2 c 0
EndSplineSet
EndChar

StartChar: grave
Encoding: 96 96 50
Width: 773
VWidth: 0
Flags: HW
LayerCount: 2
UndoRedoHistory
Layer: 1
Undoes
EndUndoes
Redoes
EndRedoes
EndUndoRedoHistory
Fore
SplineSet
290.2 1528.8 m 1
 -41 1848 l 1
 196.6 1848 l 1
 443.2 1528.8 l 1
 290.2 1528.8 l 1
EndSplineSet
EndChar

StartChar: greater
Encoding: 62 62 51
Width: 1456
VWidth: 0
Flags: HW
LayerCount: 2
UndoRedoHistory
Layer: 1
Undoes
EndUndoes
Redoes
EndRedoes
EndUndoRedoHistory
Fore
SplineSet
241.8 75.6 m 1
 241.8 229.2 l 1
 1029.6 571.8 l 1
 247.2 942 l 1
 247.2 1094 l 1
 1250.2 610.8 l 1
 1250.2 521.8 l 1
 241.8 75.6 l 1
EndSplineSet
EndChar

StartChar: h
Encoding: 104 104 52
Width: 1259
VWidth: 0
Flags: HW
LayerCount: 2
UndoRedoHistory
Layer: 1
Undoes
EndUndoes
Redoes
EndRedoes
EndUndoRedoHistory
Fore
SplineSet
1169.6 -26.6 m 1
 932.8 -66.6 869.8 39.2 871 260.4 c 2
 872.2 556.8 l 2
 872.2 763.2 808.2 865.8 659 865.8 c 0
 496.2 865.8 357.2 751.4 357.2 546.4 c 2
 357.2 0 l 1
 159.2 0 l 1
 159.2 1509.2 l 1
 357.2 1534 l 1
 357.2 886.6 l 1
 432.4 978.8 567.6 1035.2 699.2 1035.2 c 0
 935.2 1035.2 1069.8 877.4 1068 567.8 c 2
 1066.8 319.6 l 2
 1066.2 178.2 1065.6 111.4 1189.2 133 c 1
 1169.6 -26.6 l 1
EndSplineSet
EndChar

StartChar: hyphen
Encoding: 45 45 53
Width: 780
VWidth: 0
Flags: HW
LayerCount: 2
UndoRedoHistory
Layer: 1
Undoes
EndUndoes
Redoes
EndRedoes
EndUndoRedoHistory
Fore
SplineSet
104.4 511.4 m 1
 104.4 661.6 l 1
 675.6 661.6 l 1
 675.6 511.4 l 1
 104.4 511.4 l 1
EndSplineSet
EndChar

StartChar: i
Encoding: 105 105 54
Width: 655
VWidth: 0
Flags: HW
LayerCount: 2
UndoRedoHistory
Layer: 1
Undoes
EndUndoes
Redoes
EndRedoes
EndUndoRedoHistory
Fore
SplineSet
661.8 30.8 m 1
 430.6 -67.4 167 -20.2 167 268 c 2
 167 1014 l 1
 363 1014 l 1
 363 295.8 l 2
 363 109.6 497.6 126.8 635.6 175.8 c 1
 661.8 30.8 l 1
267.8 1217.4 m 0
 196.2 1217.4 136.8 1263 136.8 1339.4 c 0
 136.8 1415.8 196.8 1460.8 269.2 1460.8 c 0
 340.4 1460.8 400.2 1414.4 400.2 1338.4 c 0
 400.2 1262.4 339.8 1217.4 267.8 1217.4 c 0
EndSplineSet
EndChar

StartChar: j
Encoding: 106 106 55
Width: 594
VWidth: 0
Flags: HW
LayerCount: 2
UndoRedoHistory
Layer: 1
Undoes
EndUndoes
Redoes
EndRedoes
EndUndoRedoHistory
Fore
SplineSet
62.2 -477 m 0
 7.2 -477 -51.2 -467.8 -114 -451 c 1
 -89.4 -296.6 l 1
 -36.8 -309.2 5 -316.8 32.2 -316.8 c 0
 146.8 -316.8 225.8 -234.6 225.8 -4.6 c 2
 225.8 1014 l 1
 421.8 1014 l 1
 421.8 1.8 l 2
 421.8 -333.6 282.4 -477 62.2 -477 c 0
319.2 1214.6 m 0
 248 1214.6 188.2 1261 188.2 1336.6 c 0
 188.2 1413 248.6 1458.8 320.6 1458.8 c 0
 392.2 1458.8 452 1412.4 452 1335.6 c 0
 452 1260 391.6 1214.6 319.2 1214.6 c 0
EndSplineSet
EndChar

StartChar: k
Encoding: 107 107 56
Width: 1151
VWidth: 0
Flags: HW
LayerCount: 2
UndoRedoHistory
Layer: 1
Undoes
EndUndoes
Redoes
EndRedoes
EndUndoRedoHistory
Fore
SplineSet
1141.6 -21.2 m 1
 968.2 -21.2 881 23.4 779.6 169 c 2
 617.6 403.2 l 1
 334.6 29.4 l 1
 269.8 -51.4 156.8 -27.2 156.8 76 c 2
 156.8 1502.8 l 1
 352 1528.8 l 1
 352 330.8 l 1
 842.8 1010.4 l 1
 1025 961.2 l 1
 728.8 545.6 l 1
 911.2 286.4 l 2
 992.6 170.8 1048.6 134.6 1166.8 142.6 c 1
 1141.6 -21.2 l 1
EndSplineSet
EndChar

StartChar: l
Encoding: 108 108 57
Width: 709
VWidth: 0
Flags: HW
LayerCount: 2
UndoRedoHistory
Layer: 1
Undoes
EndUndoes
Redoes
EndRedoes
EndUndoRedoHistory
Fore
SplineSet
709 178.4 m 1
 734 32.2 l 1
 651.2 1.6 568.8 -15.2 493.6 -15.2 c 0
 307.4 -15.2 166.4 83 166.4 300.4 c 2
 166.4 1508 l 1
 362.4 1537.6 l 1
 362.4 316.4 l 2
 362.4 191.8 431.2 141.2 530.2 141.2 c 0
 582.4 141.2 651.8 156.2 709 178.4 c 1
EndSplineSet
EndChar

StartChar: less
Encoding: 60 60 58
Width: 1901
VWidth: 0
Flags: HW
LayerCount: 2
UndoRedoHistory
Layer: 1
Undoes
EndUndoes
Redoes
EndRedoes
EndUndoRedoHistory
Fore
SplineSet
1287.8 62.4 m 1
 285.8 521.6 l 1
 285.8 608.6 l 1
 1291.8 1079.4 l 1
 1291.8 927.2 l 1
 504.4 565.6 l 1
 1287.8 214.4 l 1
 1287.8 62.4 l 1
EndSplineSet
EndChar

StartChar: m
Encoding: 109 109 59
Width: 1954
VWidth: 0
Flags: HW
LayerCount: 2
UndoRedoHistory
Layer: 1
Undoes
EndUndoes
Redoes
EndRedoes
EndUndoRedoHistory
Fore
SplineSet
1890.2 -11.4 m 1
 1653 -39.4 1567.2 66.4 1568.4 287.6 c 1
 1568.4 556.8 l 2
 1568.4 763.2 1508.4 865.8 1360 865.8 c 0
 1222.8 865.8 1074.2 765 1074.2 548 c 2
 1074.2 0 l 1
 878.4 0 l 1
 878.4 556.8 l 2
 878.4 771.2 809.8 865.8 669.4 865.8 c 0
 527.6 865.8 390.8 772.8 381.8 567 c 1
 381.8 0 l 1
 183.8 0 l 1
 183.8 663.4 l 2
 183.8 773.4 131.2 869.4 74.4 928 c 1
 255.6 1012.8 l 1
 293.8 981 339.2 919 350.4 859.8 c 1
 429.6 974.2 561 1035.2 701.6 1035.2 c 0
 855 1035.2 967.4 965 1023.6 828.2 c 1
 1101.6 981.6 1259.6 1035.2 1386.2 1035.2 c 0
 1622.2 1035.2 1766 877.4 1764.2 567.8 c 1
 1764.2 346.8 l 2
 1763.6 205.4 1779.8 139.2 1909.4 148.2 c 1
 1890.2 -11.4 l 1
EndSplineSet
EndChar

StartChar: n
Encoding: 110 110 60
Width: 1285
VWidth: 0
Flags: HW
LayerCount: 2
UndoRedoHistory
Layer: 1
Undoes
EndUndoes
Redoes
EndRedoes
EndUndoRedoHistory
Fore
SplineSet
1239.8 138 m 1
 1220.6 -13.4 l 1
 1196.8 -17.2 1175.6 -18.8 1156 -18.8 c 0
 952 -18.8 894.8 101.2 894.8 303.6 c 2
 894.8 565.2 l 2
 894.8 771.6 815.2 865.8 674.8 865.8 c 0
 541 865.8 403.4 772.8 394.4 567 c 1
 394.4 0 l 1
 196.4 0 l 1
 196.4 663.4 l 2
 196.4 773.4 140.2 873.6 87 928 c 1
 267 1012.8 l 1
 305.8 981.6 350.2 917.8 363 863 c 1
 429.4 968.6 561.4 1035.2 710 1035.2 c 0
 946 1035.2 1090 888.8 1090 579.2 c 2
 1090 330 l 2
 1090 185 1119.2 136.8 1217 136.8 c 0
 1224.2 136.8 1231.4 137.2 1239.8 138 c 1
EndSplineSet
EndChar

StartChar: nine
Encoding: 57 57 61
Width: 1250
VWidth: 0
Flags: HW
LayerCount: 2
UndoRedoHistory
Layer: 1
Undoes
EndUndoes
Redoes
EndRedoes
EndUndoRedoHistory
Fore
SplineSet
556.8 -98.4 m 1
 392.4 -7.6 l 1
 766.2 551.4 l 1
 756.6 545.4 701.2 511.4 612 511.4 c 0
 315.2 511.4 123.6 721.6 123.6 990.6 c 0
 123.6 1294.4 353.6 1477.8 629 1477.8 c 0
 944.4 1477.8 1142.6 1269 1142.6 986.2 c 0
 1142.6 860.6 1075.8 691.8 988 558 c 2
 556.8 -98.4 l 1
638.8 671 m 0
 831.2 671 954.8 794.2 954.8 993.6 c 0
 954.8 1192.4 837.6 1308.8 639.8 1308.8 c 0
 455 1308.8 321.6 1195 321.6 995.6 c 0
 321.6 813.4 429.2 671 638.8 671 c 0
EndSplineSet
EndChar

StartChar: numbersign
Encoding: 35 35 62
Width: 1623
VWidth: 0
Flags: HW
LayerCount: 2
UndoRedoHistory
Layer: 1
Undoes
EndUndoes
Redoes
EndRedoes
EndUndoRedoHistory
Fore
SplineSet
241 78.4 m 1
 331 533 l 1
 61.4 533 l 1
 73.2 667.4 l 1
 356.6 667.4 l 1
 373.8 768.2 392 862.6 410.2 962 c 1
 130.8 962 l 1
 145 1094.4 l 1
 433.4 1094.4 l 1
 518 1533.2 l 1
 674.4 1533.2 l 1
 591.8 1094.4 l 1
 870.8 1094.4 l 1
 952.4 1533.2 l 1
 1108.8 1533.2 l 1
 1025.2 1094.4 l 1
 1283 1094.4 l 1
 1267.8 962 l 1
 1000.6 962 l 1
 946 667.4 l 1
 1215.6 667.4 l 1
 1200.4 533 l 1
 922.4 533 l 1
 833.8 78.4 l 1
 678.8 78.4 l 1
 764 533 l 1
 485 533 l 1
 397.4 78.4 l 1
 241 78.4 l 1
508.6 667.4 m 1
 791 667.4 l 1
 845.6 962 l 1
 566.6 962 l 1
 508.6 667.4 l 1
EndSplineSet
EndChar

StartChar: o
Encoding: 111 111 63
Width: 1251
VWidth: 0
Flags: HW
LayerCount: 2
UndoRedoHistory
Layer: 1
Undoes
EndUndoes
Redoes
EndRedoes
EndUndoRedoHistory
Fore
SplineSet
629.2 139.2 m 0
 822.8 139.2 951.6 285.6 951.6 505 c 0
 951.6 725 822.4 872.2 627.8 872.2 c 0
 431.2 872.2 299.6 724.4 299.6 503.8 c 0
 299.6 285 431.6 139.2 629.2 139.2 c 0
628.4 -22 m 0
 310.4 -22 98.4 188.6 98.4 505 c 0
 98.4 823 310 1035.2 627.4 1035.2 c 0
 942.8 1035.2 1152.8 824.4 1152.8 506.6 c 0
 1152.8 189.6 943.6 -22 628.4 -22 c 0
EndSplineSet
EndChar

StartChar: one
Encoding: 49 49 64
Width: 1250
VWidth: 0
Flags: HW
LayerCount: 2
UndoRedoHistory
Layer: 1
Undoes
EndUndoes
Redoes
EndRedoes
EndUndoRedoHistory
Fore
SplineSet
625.6 0 m 1
 625.6 1266 l 1
 559.6 1215.6 473.6 1168 367.6 1124 c 1
 319 1271 l 1
 435 1323.6 564.6 1401.8 632.2 1452.8 c 1
 836 1452.8 l 1
 836 0 l 1
 625.6 0 l 1
EndSplineSet
EndChar

StartChar: p
Encoding: 112 112 65
Width: 1284
VWidth: 0
Flags: HW
LayerCount: 2
UndoRedoHistory
Layer: 1
Undoes
EndUndoes
Redoes
EndRedoes
EndUndoRedoHistory
Fore
SplineSet
173 -472.6 m 1
 173 674.8 l 2
 173 812.4 112.2 877.8 66 931.2 c 1
 245.4 1013.2 l 1
 295 973.2 342.2 909 351.8 833.6 c 1
 422.8 963 574.6 1035.2 722.4 1035.2 c 0
 1006.6 1035.2 1191 841.2 1191 519.8 c 0
 1191 188.4 1002.4 -22 706.4 -22 c 0
 581.8 -22 448.2 18.6 371.8 83.8 c 1
 371 -461.8 l 1
 173 -472.6 l 1
678.4 139.2 m 0
 869.6 139.2 989.4 283.2 989.4 513.8 c 0
 989.4 736.4 885 872.2 706.6 872.2 c 0
 505.4 872.2 370.4 699 370.4 427.2 c 2
 370.4 273.6 l 1
 429 190.4 552.4 139.2 678.4 139.2 c 0
EndSplineSet
EndChar

StartChar: percent
Encoding: 37 37 66
Width: 2589
VWidth: 0
Flags: HW
LayerCount: 2
UndoRedoHistory
Layer: 1
Undoes
EndUndoes
Redoes
EndRedoes
EndUndoRedoHistory
Fore
SplineSet
596 727.2 m 0
 408 727.2 292.6 831.4 244.8 972.6 c 0
 227.6 1021.8 219.2 1075 219.2 1131.6 c 0
 219.2 1320 310.2 1451.4 442.6 1510.4 c 0
 489.8 1531.6 543.4 1541.4 602 1541.4 c 0
 845 1541.4 977.4 1377.6 977.4 1136 c 0
 977.4 948 885.4 819.6 754 759.6 c 0
 706.8 738.4 654.6 727.2 596 727.2 c 0
1589.4 -35 m 0
 1401.4 -35 1287.8 68.4 1238.6 210 c 0
 1221.4 258.8 1213 312 1213 369 c 0
 1213 558 1304 688.2 1436.4 747.8 c 0
 1483.6 769.4 1537.2 779.8 1595.8 779.8 c 0
 1838.8 779.8 1971.6 616 1971.6 374.4 c 0
 1971.6 186.4 1879.2 56.6 1747.8 -3 c 0
 1700.6 -24.6 1648 -35 1589.4 -35 c 0
600 848.2 m 0
 756 848.2 824.8 981 824.8 1137 c 0
 824.8 1262.4 782.6 1355.4 700.8 1399.2 c 0
 672.8 1414 638.4 1421.4 601 1421.4 c 0
 442.6 1421.4 373.2 1290 373.2 1133 c 0
 373.2 974.6 441.6 848.2 600 848.2 c 0
1592.4 85.6 m 0
 1749.8 85.6 1817.2 219.4 1817.2 375.4 c 0
 1817.2 532.8 1750.8 659.2 1594.8 659.2 c 0
 1436.4 659.2 1367 525.4 1367 368.4 c 0
 1367 244 1409.4 152 1492 108.2 c 0
 1519.6 93 1554 85.6 1592.4 85.6 c 0
510 -11.8 m 1
 1477.2 1529.6 l 1
 1642.6 1529.6 l 1
 674.8 -11.8 l 1
 510 -11.8 l 1
EndSplineSet
EndChar

StartChar: period
Encoding: 46 46 67
Width: 583
VWidth: 0
Flags: HW
LayerCount: 2
UndoRedoHistory
Layer: 1
Undoes
EndUndoes
Redoes
EndRedoes
EndUndoRedoHistory
Fore
SplineSet
278.2 -9.6 m 0
 198.4 -9.6 148 47 148 119.2 c 0
 148 195.6 208 245.8 278.8 245.8 c 0
 358.6 245.8 409 189.6 409 117.4 c 0
 409 40.2 349 -9.6 278.2 -9.6 c 0
EndSplineSet
EndChar

StartChar: plus
Encoding: 43 43 68
Width: 1775
VWidth: 0
Flags: HW
LayerCount: 2
UndoRedoHistory
Layer: 1
Undoes
EndUndoes
Redoes
EndRedoes
EndUndoRedoHistory
Fore
SplineSet
678.8 80.8 m 1
 678.8 533 l 1
 199.6 533 l 1
 199.6 682 l 1
 681.8 682 l 1
 681.8 1134.6 l 1
 840.2 1134.6 l 1
 840.2 682 l 1
 1320.8 682 l 1
 1320.8 533 l 1
 838.2 533 l 1
 838.2 80.8 l 1
 678.8 80.8 l 1
EndSplineSet
EndChar

StartChar: q
Encoding: 113 113 69
Width: 1307
VWidth: 0
Flags: HW
LayerCount: 2
UndoRedoHistory
Layer: 1
Undoes
EndUndoes
Redoes
EndRedoes
EndUndoRedoHistory
Fore
SplineSet
1100.6 -563 m 2
 1002 -615 910.2 -543.4 910.2 -442 c 2
 910.2 122.8 l 1
 832.2 27.4 713 -22 576.2 -22 c 0
 282.2 -22 94.4 190.2 94.4 497.6 c 0
 94.4 807 287.8 1035.2 593.4 1035.2 c 0
 800.2 1035.2 891.6 952.2 925.8 894 c 1
 940 1003.6 l 1
 1119 996.4 l 1
 1116 976 1108.2 793.6 1108.2 731.8 c 2
 1108.2 -366.6 l 1
 1365.8 -232.6 l 1
 1446.2 -381.4 l 1
 1100.6 -563 l 2
596.8 139.6 m 0
 747.6 139.6 879.6 238 910.2 393.6 c 1
 910.2 610.6 l 1
 893 765.8 785.6 872.2 611 872.2 c 0
 403.6 872.2 296 715.6 296 500.6 c 0
 296 290 396.2 139.6 596.8 139.6 c 0
EndSplineSet
EndChar

StartChar: question
Encoding: 63 63 70
Width: 1002
VWidth: 0
Flags: HW
LayerCount: 2
UndoRedoHistory
Layer: 1
Undoes
EndUndoes
Redoes
EndRedoes
EndUndoRedoHistory
Fore
SplineSet
333 380.4 m 1
 333 783.2 666.2 854.611459238 666.2 1114.6 c 0
 666.2 1243.58835022 558.970889937 1293.77638852 436.420693888 1295.03310261 c 0
 349.414830274 1295.9408576 247.945669085 1272.06662015 172.8 1235.2 c 1
 160.4 1410.2 l 1
 249.6 1450.8 351.8 1477.8 456.6 1477.8 c 0
 715 1477.8 879.2 1349.6 879.2 1130.6 c 0
 879.2 764.523232323 478 707.6 453.6 380.4 c 1
 333 380.4 l 1
395.2 0 m 0
 318.2 0 270.2 54.6 270.2 123.6 c 0
 270.2 197.2 328.6 245.8 396.6 245.8 c 0
 473.2 245.8 521.2 191.2 521.2 122.2 c 0
 521.2 48.6 463.2 0 395.2 0 c 0
EndSplineSet
EndChar

StartChar: quotedbl
Encoding: 34 34 71
Width: 939
VWidth: 0
Flags: HW
LayerCount: 2
UndoRedoHistory
Layer: 1
Undoes
EndUndoes
Redoes
EndRedoes
EndUndoRedoHistory
Fore
SplineSet
187.2 1293.2 m 1
 148.4 1787.2 l 1
 327 1787.2 l 1
 327 1293.2 l 1
 187.2 1293.2 l 1
496.2 1293.2 m 1
 457.8 1787.2 l 1
 635 1787.2 l 1
 635 1293.2 l 1
 496.2 1293.2 l 1
EndSplineSet
EndChar

StartChar: quotesingle
Encoding: 39 39 72
Width: 722
VWidth: 0
Flags: HW
LayerCount: 2
UndoRedoHistory
Layer: 1
Undoes
EndUndoes
Redoes
EndRedoes
EndUndoRedoHistory
Fore
SplineSet
268 1290.2 m 1
 229.6 1784.2 l 1
 407.2 1784.2 l 1
 407.2 1290.2 l 1
 268 1290.2 l 1
EndSplineSet
EndChar

StartChar: r
Encoding: 114 114 73
Width: 832
VWidth: 0
Flags: HW
LayerCount: 2
UndoRedoHistory
Layer: 1
Undoes
EndUndoes
Redoes
EndRedoes
EndUndoRedoHistory
Fore
SplineSet
189 0 m 1
 189 663.8 l 2
 189 813 125.2 884 79.6 928.8 c 1
 260.2 1014 l 1
 304.6 973.6 350 915.6 362.4 846.8 c 1
 408.4 953.4 528.2 1033.6 647.6 1033.6 c 0
 729.4 1033.6 764.4 1023.6 800 1014 c 1
 784.4 839.4 l 1
 756.6 847.4 716 860.2 651 860.2 c 0
 483.4 860.2 387 724.6 387 550.8 c 2
 387 0 l 1
 189 0 l 1
EndSplineSet
EndChar

StartChar: s
Encoding: 115 115 74
Width: 926
VWidth: 0
Flags: HW
LayerCount: 2
UndoRedoHistory
Layer: 1
Undoes
EndUndoes
Redoes
EndRedoes
EndUndoRedoHistory
Fore
SplineSet
480 -22 m 0
 319.8 -22 189.2 26.8 120.4 64.6 c 1
 171.2 215 l 1
 255.4 172.4 352.8 136.8 472.8 136.8 c 0
 582.4 136.8 650 181.4 650 266 c 0
 650 359.8 547.55 392.85 395.55 452.95 c 1
 224.35 518.65 116 596.2 117.8 749.8 c 0
 119.6 903 226.6 1035.2 463 1035.2 c 0
 620.4 1035.2 732.6 988.2 793.8 955.8 c 1
 750.6 810.4 l 1
 683.4 845.4 577.2 877 484.2 877 c 0
 372.6 877 307.4 835 307.4 760.4 c 0
 307.4 680.5 408.65 640.65 547.7 586.325 c 1
 721.95 520.8 836.8 448 834.4 286.6 c 0
 832 102.2 704.8 -22 480 -22 c 0
EndSplineSet
EndChar

StartChar: semicolon
Encoding: 59 59 75
Width: 704
VWidth: 0
Flags: HW
LayerCount: 2
UndoRedoHistory
Layer: 1
Undoes
EndUndoes
Redoes
EndRedoes
EndUndoRedoHistory
Fore
SplineSet
130.4 -334 m 1
 244 161.4 l 1
 444.8 161.4 l 1
 270.6 -334 l 1
 130.4 -334 l 1
193.8 824.4 m 1
 215.8 1049.2 l 1
 426 1049.2 l 1
 426 824.4 l 1
 193.8 824.4 l 1
EndSplineSet
EndChar

StartChar: seven
Encoding: 55 55 76
Width: 1250
VWidth: 0
Flags: HW
LayerCount: 2
UndoRedoHistory
Layer: 1
Undoes
EndUndoes
Redoes
EndRedoes
EndUndoRedoHistory
Fore
SplineSet
343 0 m 1
 904.2 1272.2 l 1
 157.4 1272.2 l 1
 157.4 1438.8 l 1
 1125.4 1438.8 l 1
 1125.4 1311.8 l 1
 563.4 0 l 1
 343 0 l 1
EndSplineSet
EndChar

StartChar: six
Encoding: 54 54 77
Width: 1250
VWidth: 0
Flags: HW
LayerCount: 2
UndoRedoHistory
Layer: 1
Undoes
EndUndoes
Redoes
EndRedoes
EndUndoRedoHistory
Fore
SplineSet
639.4 -29 m 0
 324 -29 144 196 125 484.2 c 0
 99.4 869.2 258 1392.2 883.2 1518.8 c 1
 935.6 1361.8 l 1
 603.4 1299.2 404.4 1090.4 338.2 798.4 c 1
 394.8 889.6 559.8 940.8 667.8 940.8 c 0
 960.2 940.8 1144 731 1144 461.6 c 0
 1144 157 914.8 -29 639.4 -29 c 0
633.8 143.4 m 0
 818.6 143.4 949.4 257.2 949.4 452.6 c 0
 949.4 634.8 845.4 781 635.8 780.4 c 0
 452 779.8 313.2 658 313.2 458.2 c 0
 313.2 279.2 436 143.4 633.8 143.4 c 0
EndSplineSet
EndChar

StartChar: slash
Encoding: 47 47 78
Width: 980
VWidth: 0
Flags: HW
LayerCount: 2
UndoRedoHistory
Layer: 1
Undoes
EndUndoes
Redoes
EndRedoes
EndUndoRedoHistory
Fore
SplineSet
85 0 m 1
 720.4 1452.8 l 1
 895 1452.8 l 1
 255.6 0 l 1
 85 0 l 1
EndSplineSet
EndChar

StartChar: t
Encoding: 116 116 80
Width: 849
VWidth: 0
Flags: HW
LayerCount: 2
UndoRedoHistory
Layer: 1
Undoes
EndUndoes
Redoes
EndRedoes
EndUndoRedoHistory
Fore
SplineSet
566.8 -11.2 m 0
 348.4 -11.2 230 81.6 230 298.4 c 2
 230 879.4 l 1
 33.4 879.4 l 1
 33.4 1014 l 1
 233 1014 l 1
 233 1302.4 l 1
 426.8 1342.2 l 1
 426.8 1014 l 1
 739.8 1014 l 1
 739.8 879.4 l 1
 426.8 879.4 l 1
 426.8 318 l 2
 426.8 198.2 483.4 145.8 599.8 145.8 c 0
 645.8 145.8 736.2 163.2 782.8 180 c 1
 804.2 30.2 l 1
 731.6 7.4 631.8 -11.2 566.8 -11.2 c 0
EndSplineSet
EndChar

StartChar: three
Encoding: 51 51 81
Width: 1250
VWidth: 0
Flags: HW
LayerCount: 2
UndoRedoHistory
Layer: 1
Undoes
EndUndoes
Redoes
EndRedoes
EndUndoRedoHistory
Fore
SplineSet
605 -23.8 m 0
 408.4 -23.8 232.6 50.6 170.2 207.8 c 1
 258.4 341.6 l 1
 340.6 216.8 466 156.2 614.6 156.2 c 0
 787.8 156.2 926.8 240.4 926.8 396.8 c 0
 926.8 620 748.4 670.6 532.6 666.4 c 1
 454.4 664.4 l 1
 452.4 835.8 l 1
 516.6 835.8 l 2
 703.2 835.8 881.6 876.4 881.6 1084.2 c 0
 881.6 1240.2 757.2 1297.8 608.2 1297.8 c 0
 465.8 1297.8 356 1242.4 286.4 1139.4 c 1
 171.6 1255.2 l 1
 254.2 1399.4 428.2 1477.8 623 1477.8 c 0
 867.2 1477.8 1087.2 1352.2 1087.2 1096.8 c 0
 1087.2 897.8 951.4 801.8 826.4 760.4 c 1
 967.8 727.8 1126.4 625 1126.4 393.8 c 0
 1126.4 114 875 -23.8 605 -23.8 c 0
EndSplineSet
EndChar

StartChar: two
Encoding: 50 50 82
Width: 1250
VWidth: 0
Flags: HW
LayerCount: 2
UndoRedoHistory
Layer: 1
Undoes
EndUndoes
Redoes
EndRedoes
EndUndoRedoHistory
Fore
SplineSet
142.4 0 m 1
 141.8 165 l 1
 279.6 294.6 455.4 444.4 604.8 600.4 c 0
 726 726.4 862.8 896.4 862.8 1068.4 c 0
 862.8 1213 754 1297.8 608.8 1297.8 c 0
 453.6 1297.8 336 1220.2 273.4 1094.2 c 1
 148.8 1207.2 l 1
 217.2 1378.6 396.4 1477.8 619 1477.8 c 0
 869.4 1477.8 1081 1340 1081 1073.8 c 0
 1081 837 889.2 626.8 743.6 478.8 c 0
 626.4 359.4 495.6 247.8 408 167 c 1
 1076.8 167 l 1
 1076.8 0 l 1
 142.4 0 l 1
EndSplineSet
EndChar

StartChar: u
Encoding: 117 117 83
Width: 1244
VWidth: 0
Flags: HW
LayerCount: 2
UndoRedoHistory
Layer: 1
Undoes
EndUndoes
Redoes
EndRedoes
EndUndoRedoHistory
Fore
SplineSet
529.2 -22 m 0
 318.4 -22 143 99.6 150.6 360.6 c 1
 155.8 574.8 l 1
 164.8 878.2 105.6 987.6 105.6 987.6 c 1
 304.2 1014 l 1
 304.2 1014 363.4 918.2 354.4 587.8 c 2
 348.8 371.4 l 2
 344.6 203.4 441.6 137.6 562.2 137.6 c 0
 727.2 137.6 851.2 245.8 851.2 436.2 c 2
 851.2 1014 l 1
 1048.8 1014 l 1
 1048.8 310.4 l 2
 1048.8 176.4 1099.8 145.4 1186.6 157.4 c 1
 1163 -3.4 l 1
 1004 -21.4 899 57 882.6 168 c 1
 812.8 42.8 690 -22 529.2 -22 c 0
EndSplineSet
EndChar

StartChar: underscore
Encoding: 95 95 84
Width: 990
VWidth: 0
Flags: HW
LayerCount: 2
UndoRedoHistory
Layer: 1
Undoes
EndUndoes
Redoes
EndRedoes
EndUndoRedoHistory
Fore
SplineSet
-7 -356.2 m 1
 -7 -228.2 l 1
 994 -228.2 l 1
 994 -356.2 l 1
 -7 -356.2 l 1
EndSplineSet
EndChar

StartChar: v
Encoding: 118 118 86
Width: 1080
VWidth: 0
Flags: HW
LayerCount: 2
UndoRedoHistory
Layer: 1
Undoes
EndUndoes
Redoes
EndRedoes
EndUndoRedoHistory
Fore
SplineSet
451.8 0 m 1
 20 1014 l 1
 230.8 1014 l 1
 489 395.2 l 2
 508.8 349.2 530.6 281 546.2 227.8 c 1
 577.2 328 589.8 367.8 601.8 395.2 c 2
 855 1014 l 1
 1060.8 1014 l 1
 633.4 0 l 1
 451.8 0 l 1
EndSplineSet
EndChar

StartChar: w
Encoding: 119 119 87
Width: 1680
VWidth: 0
Flags: HW
LayerCount: 2
UndoRedoHistory
Layer: 1
Undoes
EndUndoes
Redoes
EndRedoes
EndUndoRedoHistory
Fore
SplineSet
399.4 0 m 1
 22 1014 l 1
 229.2 1014 l 1
 452.6 364 l 2
 465 328.2 480.4 281 492.4 241.6 c 1
 510.4 298 521 331.8 533 359.2 c 1
 747.6 971.6 l 2
 768.199254604 1031.60652428 928.676839516 1026.8525333 948.4 973.6 c 1
 1158.8 365.2 l 2
 1171.2 330 1186.6 282.2 1199 243.4 c 1
 1218.4 301 1229 335.4 1241 365.8 c 1
 1457.4 1014 l 1
 1658 1014 l 1
 1285.2 0 l 1
 1108 0 l 1
 846.6 731.4 l 1
 577.8 0 l 1
 399.4 0 l 1
EndSplineSet
EndChar

StartChar: x
Encoding: 120 120 88
Width: 1110
VWidth: 0
Flags: HW
LayerCount: 2
UndoRedoHistory
Layer: 1
Undoes
EndUndoes
Redoes
EndRedoes
EndUndoRedoHistory
Fore
SplineSet
36.8 0 m 1
 440 516 l 1
 66.2 1014 l 1
 304.8 1014 l 1
 574.8 648 l 1
 840.2 1014 l 1
 1059.2 1014 l 1
 683.6 512.4 l 1
 1073.8 0 l 1
 832 0 l 1
 549.2 382.8 l 1
 257.2 0 l 1
 36.8 0 l 1
EndSplineSet
EndChar

StartChar: y
Encoding: 121 121 89
Width: 1226
VWidth: 0
Flags: HW
LayerCount: 2
UndoRedoHistory
Layer: 1
Undoes
EndUndoes
Redoes
EndRedoes
EndUndoRedoHistory
Fore
SplineSet
540.6 -513.2 m 0
 429.6 -513.2 296.8 -487.2 189.8 -443.4 c 1
 219.6 -271.6 l 1
 309.6 -316.8 432.4 -348.2 523.8 -348.2 c 0
 703.6 -348.2 864 -252.4 864 -44 c 1
 865.2 124.4 l 1
 791 24.4 679.6 -22 544.4 -22 c 0
 330.8 -22 153.4 100 160.6 361 c 2
 166.2 574.8 l 2
 174.4 878.2 116 987.6 116 987.6 c 1
 314.2 1014 l 1
 314.2 1014 371.8 918.2 364 587.8 c 2
 358.8 371.4 l 2
 354.6 200.2 456.8 137.6 579.8 137.6 c 0
 748.8 137.6 862.8 246.6 862.8 445.4 c 2
 862.8 1014 l 1
 1060.4 1014 l 1
 1060.4 -16.2 l 2
 1060 -344 837.2 -513.2 540.6 -513.2 c 0
EndSplineSet
EndChar

StartChar: z
Encoding: 122 122 90
Width: 1004
VWidth: 0
Flags: HW
LayerCount: 2
UndoRedoHistory
Layer: 1
Undoes
EndUndoes
Redoes
EndRedoes
EndUndoRedoHistory
Fore
SplineSet
97.6 0 m 1
 97.6 115.4 l 1
 662.4 864.6 l 1
 119.2 864.6 l 1
 119.2 1014 l 1
 914.2 1014 l 1
 914.2 900.6 l 1
 353 154.4 l 1
 933.2 154.4 l 1
 933.2 0 l 1
 97.6 0 l 1
EndSplineSet
EndChar

StartChar: zero
Encoding: 48 48 91
Width: 1251
VWidth: 0
Flags: HW
LayerCount: 2
UndoRedoHistory
Layer: 1
Undoes
EndUndoes
Redoes
EndRedoes
EndUndoRedoHistory
Fore
SplineSet
623.6 165.8 m 0
 851.4 165.8 936 445.2 936 729.6 c 0
 936 1026 864.6 1300.6 623.6 1300.6 c 0
 392 1300.6 309 1018.8 309 729.6 c 0
 309 435 381.2 165.8 623.6 165.8 c 0
620.6 -12.6 m 0
 251 -12.6 89.4 319.8 89.4 729.6 c 0
 89.4 1143 255.8 1479.4 623.6 1479.4 c 0
 1004.6 1479.4 1158.8 1151.4 1158.8 729.6 c 0
 1158.8 323.4 986 -12.6 620.6 -12.6 c 0
EndSplineSet
EndChar
